<svg viewBox="0 0 511.99984 511" xmlns="http://www.w3.org/2000/svg"><path d="m74.152344 131.539062c22.398437-43.816406 66.785156-71.039062 115.84375-71.039062 5.523437 0 10-4.476562 10-10s-4.476563-10-10-10c-57.773438 0-108.597656 32.917969-133.652344 81.9375-2.511719 4.917969-.5625 10.941406 4.355469 13.457031 4.914062 2.511719 10.941406.5625 13.453125-4.355469zm0 0"/><path d="m57.5 161.238281c0 4.144531-3.359375 7.5-7.5 7.5-4.144531 0-7.5-3.355469-7.5-7.5 0-4.140625 3.355469-7.5 7.5-7.5 4.140625 0 7.5 3.359375 7.5 7.5zm0 0"/><path d="m490.726562 406.628906c-.339843-.289062-.699218-.554687-1.078124-.792968l-49.257813-31.410157c-30.363281-19.363281-67.429687-50.183593-93.554687-75.949219 21.980468-31.769531 33.558593-68.824218 33.558593-107.71875 0-104.910156-85.410156-190.257812-190.398437-190.257812-104.765625 0-189.996094 85.234375-189.996094 189.996094 0 104.910156 85.410156 190.257812 190.398438 190.257812 38.273437 0 74.84375-11.246094 106.316406-32.597656 26.089844 26.367188 58.835937 63.851562 78.589844 94.808594l30.089843 47.160156c.242188.375.507813.734375.796875 1.078125 24.5 28.957031 69.511719 28.425781 93.246094-1.894531 19.003906-24.261719 16.71875-61.195313-8.710938-82.679688zm-198.898437-79.527344c-29.523437 22.015626-64.597656 33.652344-101.429687 33.652344-93.957032 0-170.398438-76.375-170.398438-170.257812 0-93.734375 76.261719-169.996094 169.996094-169.996094 93.960937 0 170.398437 76.375 170.398437 170.257812 0 56.277344-27.308593 105.570313-68.566406 136.34375zm20.949219 8.863282c7.804687-6.589844 15.070312-13.792969 21.738281-21.554688 9.863281 9.636719 21.085937 19.851563 32.746094 29.808594l-24.285157 24.28125c-9.78125-11.136719-20.132812-22.289062-30.199218-32.535156zm170.914062 141.015625c-15.636718 19.976562-45.253906 20.757812-61.816406 1.789062l-29.710938-46.5625c-9.097656-14.257812-21.507812-30.886719-36.140624-48.464843l26.691406-26.691407c16.695312 13.476563 32.789062 25.222657 46.925781 34.238281l48.660156 31.027344c15.832031 13.820313 18.285157 38.199219 5.390625 54.664063zm0 0"/><path d="m289.996094 261.496094h-10v-169.996094c0-5.523438-4.476563-10-10-10h-60c-5.523438 0-10 4.476562-10 10v50h-49.996094c-5.523438 0-10 4.476562-10 10v50h-50c-5.523438 0-10 4.476562-10 10v49.996094h-10c-5.523438 0-10 4.480468-10 10 0 5.523437 4.476562 10 10 10h219.996094c5.523437 0 10-4.476563 10-10 0-5.519532-4.476563-10-10-10zm-149.996094 0h-40v-39.996094h40zm59.996094 0h-39.996094c0-27.097656 0-84.035156 0-99.996094h39.996094zm60 0h-40c0-19.371094 0-140.628906 0-159.996094h40zm0 0"/></svg>